<?xml version="1.0" encoding="utf-8"?>
<!-- Generator: Adobe Illustrator 23.1.0, SVG Export Plug-In . SVG Version: 6.00 Build 0)  -->
<svg version="1.1" xmlns="http://www.w3.org/2000/svg" xmlns:xlink="http://www.w3.org/1999/xlink" x="0px" y="0px"
	 viewBox="0 0 439.87 439.87" style="enable-background:new 0 0 439.87 439.87;" xml:space="preserve">
<style type="text/css">
	.st0{clip-path:url(#SVGID_2_);}
	.st1{display:none;fill:#FFFFFF;}
	.st2{fill:#F2EFD4;}
	.st3{fill:#CCC3AF;}
	.st4{fill:#CEC4B1;}
	.st5{fill:#D4CAB8;}
	.st6{fill:#FFFFFE;}
	.st7{fill:#FDFAF1;}
	.st8{fill:#FCF8EC;}
	.st9{fill:#FAF2E3;}
	.st10{fill:#F9F7E8;}
	.st11{display:none;fill:#FDFDF1;}
</style>
<g id="Capa_2">
</g>
<g id="Capa_1">
	<g>
		<defs>
			<rect id="SVGID_1_" x="-2.37" y="-1.71" width="439.87" height="439.87"/>
		</defs>
		<clipPath id="SVGID_2_">
			<use xlink:href="#SVGID_1_"  style="overflow:visible;"/>
		</clipPath>
		<g class="st0">
			<path class="st1" d="M220.04,447.99c-74.36,0-148.72-0.26-223.07,0.31c-9.91,0.08-11.05-2.65-11.03-11.49
				c0.3-144.52,0.35-289.04-0.09-433.55c-0.03-9.9,2.64-11.05,11.48-11.03c148.72,0.3,297.43,0.35,446.15-0.09
				c9.9-0.03,11.05,2.64,11.03,11.48c-0.3,144.52-0.35,289.04,0.09,433.55c0.03,9.9-2.64,11.08-11.49,11.04
				C368.76,447.82,294.4,447.99,220.04,447.99z"/>
			<path class="st2" d="M0,302.29c3.44-48.55-1.95-146.59,1.8-219.48C4.18,36.74,36.87,1.28,83.98,1.19
				c84.22-0.16,168.48,1.13,252.66-0.71c28.32-0.62,53.45,0.66,74.66,21.81c16.51,16.47,25.61,34.65,26.2,57.92
				c0.49,19.29,3.72,39.87-1.64,59.41c-2.66,0.19-0.79-9.57-6.4-2.88c-9.7,6.65-18.27,13.23-27.43,20.66
				c-2.93,2.46-8.01,3.44-8.46,7.66c-0.85,3.12-2.61,5.58-5.3,7.35c-2.92,1.24-2.03,3.61-1.68,5.85c0.1,9.24-8.07,16.94-4.85,26.72
				c-7.6,22.42,8.35,34.59,22.42,44.93c28.14,20.68,42.56,61.2,31.65,97.08l-1.26-0.63c0,0-1.41,0.04-1.42,0.08
				c0.25,1.05,0.29,2.06,0.09,3.11c-0.79,2.26-1.01,4.64-1.77,6.9c-2.28,5.43-5.56,9.84-11.54,11.55
				c-11.39,3.24-19.61,12.94-31.43,15.35c-10.76,4.89-22.08,5.81-33.73,5.79c-83.7-0.14-167.4-0.06-251.08-0.07
				c-31.12,1.38-59.86-4.36-82.55-27.91C25.92,354.21-6.03,387.4,0,302.29z"/>
			<path class="st3" d="M0,332.91c5.47,6.56,12.91,18.65,19.57,25.26c22.44,25.94,51.9,32.21,84.38,30.13
				c83.11,0,166.19-0.15,249.28,0.15c13.29,0.05,25.92-1.76,38.17-6.56c10.88-2.57,18.12-11.7,28.08-16.01
				c3.17-4.17,6.76-7.75,9.92-11.92c6.42,2.85,4.14,7.81,2.97,12.48c-4.37,41.59-35.4,71.25-77.42,71.53
				c-92.05,0.61-184.1-0.54-276.15,0C-0.79,438.44,0.79,353.27,0,332.91z"/>
			<path class="st4" d="M385.54,175.76c-1.74-7.4,14.68-14.81,16.74-19.07c9.88-6.94,26.51-19.07,35.33-27.57
				c0.83,2.04-2.13,8.98-1.95,11.7c-3.36,17.06-10.64,23.21-22.3,31.06c-13.75,9.26-27.37,17.16-31.8,34.3
				c-7.43-11.25,3.39-21.32,3.18-31.15"/>
			<path class="st5" d="M432.38,366.45c-0.99-4.16-1.99-8.33-2.98-12.49c0.87-2.24,6.66-12.65,8.36-14.6
				C438.94,341.52,433.53,360.18,432.38,366.45z"/>
			<path class="st6" d="M397.73,382.02c-10.64,5.96-22.16,9.24-34.27,9.25c-88.05,0.07-176.09-0.07-264.14-0.15
				c-1.92-1.95-1.91-3.91-0.03-5.88c72.61-0.03,145.23-0.02,217.84-0.1c25.97-0.03,52.14,2.16,77.44-6.28
				C397.92,377.64,398.45,379.21,397.73,382.02z"/>
			<path class="st7" d="M99.3,385.24c0.01,1.96,0.02,3.92,0.03,5.88c-33.06,2.12-62.42-4.72-82.45-34.1
				c1.22-1.53,2.51-1.59,3.86-0.18C42.78,377.77,68.95,387.3,99.3,385.24z"/>
			<path class="st8" d="M397.73,382.02c-1.05-1.06-2.1-2.11-3.15-3.17c8.55-3.9,24.99-15.45,31.75-20.85
				C420.76,365.76,407.55,377.79,397.73,382.02z"/>
			<path class="st9" d="M20.74,356.84c-1.28,0.06-2.57,0.12-3.86,0.18c-5.34-6.51-15.52-17.52-17.66-25.83
				C8.18,340.62,13.71,350.82,20.74,356.84z"/>
			<path class="st10" d="M437.5,126.76c-0.55,4.14-6.85,15-18.83,25.9c-7.55,6.87-19.32,13.24-27.16,19.62
				c-11.66,9.5-11.88,31.43-9.98,33.89c-4.41-4.76-4.27-25.05,5.75-37.93c6.12-7.87,19.05-14.14,27.07-20.65
				C428.51,136.13,437.33,126.76,437.5,126.76z"/>
			<path class="st11" d="M385.54,171.54c-0.17,0.99-0.36,1.98-0.6,2.95"/>
		</g>
	</g>
	<g>
		<path d="M333.29,105.39v-3.6c3.28-3.52,8.18-8.82,14.7-15.9c6.52-7.08,11.42-12.38,14.7-15.9c8.08-8.8,12.12-16.04,12.12-21.72
			c0-4-1.38-7.54-4.14-10.62c-2.76-3.08-6.98-4.62-12.66-4.62c-5.76,0-11.44,3-17.04,9c-1.12,1.04-2.2,1.04-3.24,0l-2.4-2.28
			c-0.96-1.12-1-2.16-0.12-3.12c0.24-0.32,0.58-0.74,1.02-1.26c0.44-0.52,1.4-1.46,2.88-2.82c1.48-1.36,3.04-2.56,4.68-3.6
			c1.64-1.04,3.76-1.98,6.36-2.82c2.6-0.84,5.22-1.26,7.86-1.26c8.16,0,14.52,2.24,19.08,6.72c4.56,4.48,6.84,9.96,6.84,16.44
			c0,4.8-1.24,9.18-3.72,13.14c-2.48,3.96-6.24,8.66-11.28,14.1c-2.56,2.72-6.4,6.82-11.52,12.3c-5.12,5.48-8.96,9.58-11.52,12.3
			h35.28c0.56,0,1.08,0.22,1.56,0.66c0.48,0.44,0.72,0.98,0.72,1.62v3.24c0,0.56-0.24,1.08-0.72,1.56c-0.48,0.48-1,0.72-1.56,0.72
			h-45.6c-0.64,0-1.18-0.22-1.62-0.66C333.51,106.57,333.29,106.03,333.29,105.39z"/>
	</g>
	<g>
		<path d="M101.38,292.23c-26.03-25.77-39.03-57.17-39.03-94.17s13.01-68.51,39.03-94.54c26.02-26.02,57.54-39.04,94.54-39.04
			c32.8,0,62.65,11.47,89.54,34.41c3.45,3.7,3.57,7.16,0.37,10.36l-10.36,10.36c-2.72,2.96-5.92,2.84-9.62-0.37
			c-9.87-8.63-21.03-15.6-33.49-20.91c-12.46-5.3-24.73-7.95-36.82-7.95c-28.86,0-53.22,10.42-73.07,31.26
			c-19.86,20.85-29.79,45.82-29.79,74.92c0,28.86,9.93,53.9,29.79,75.11c19.85,21.22,44.21,31.82,73.07,31.82
			c12.08,0,23.68-1.29,34.78-3.88c11.1-2.59,19.11-5.24,24.05-7.96l7.77-3.7v-51.8H219.6c-1.98,0-3.64-0.61-5-1.85
			c-1.36-1.23-2.04-2.83-2.04-4.81v-13.69c0-4.68,2.34-7.03,7.03-7.03h64.01c1.72,0,3.27,0.68,4.63,2.04c1.35,1.36,2.04,3.02,2.04,5
			v84.73c0,2.47-0.99,4.44-2.96,5.92c-2.72,1.73-6.66,3.95-11.84,6.66c-5.18,2.72-15.79,6.35-31.82,10.92
			c-16.04,4.56-31.95,6.85-47.73,6.85C158.92,330.89,127.4,318.01,101.38,292.23z"/>
	</g>
</g>
</svg>
